{"title":"The Three Musketeers 2011 TS XviD READNFO - ILLUMINATI","uid":6763798,"size":1485385009,"categoryP":"video","categoryS":"movies","magnet":"?xt=urn:btih:33190a47b44481147b42e78afe19c016221dd11a&amp;dn=The+Three+Musketeers+2011+TS+XviD+READNFO+-+ILLUMINATI&amp;tr=udp%3A%2F%2Ftracker.openbittorrent.com%3A80&amp;tr=udp%3A%2F%2Fopen.demonii.com%3A1337&amp;tr=udp%3A%2F%2Ftracker.coppersurfer.tk%3A6969&amp;tr=udp%3A%2F%2Fexodus.desync.com%3A6969","seeders":0,"leechers":0,"uploader":"sceneline","files":103,"time":1319291741,"description":"- &lt;a href=&quot;\nhttp://www.Speed.Cd&quot; rel=&quot;nofollow&quot; target=&quot;_NEW&quot;&gt;\nhttp://www.Speed.Cd&lt;/a&gt;      fast  and The Hottest Private Tracker on the net\n\nPlease Seed back to make the speed Faster!!!\n\n------------------nfo--------------------------\n-\n\n\nTitle: The Three Musketeers 2011 TS XviD READNFO - ILLUMINATI\nFormat: Xvid \nSubtitles: No \nSample Included: Yes \n\n\nsource:\nAudio :  Many Thanx :P ;) \nVideo: FLOPPYDiSK source files  -  Many Thanx ;) :P\n\nimDb: http://www.imdb.com/title/tt1509767/\n\nPlot: \nThe hot-headed young D'Artagnan along with three former \nlegendary but now down on their luck Musketeers must unite \nand defeat a beautiful double agent and her villainous \nemployer from seizing the French throne \nand engulfing Europe in war. \n\nInfo:\n \nVideo\nID                               : 0\nFormat                           : MPEG-4 Visual\nFormat profile                   : Advanced Simple@L5\nFormat settings, BVOP            : 2\nFormat settings, QPel            : No\nFormat settings, GMC             : No warppoints\nFormat settings, Matrix          : Default (H.263)\nMuxing mode                      : Packed bitstream\nCodec ID                         : XVID\nCodec ID/Hint                    : XviD\nDuration                         : 1h 45mn\nBit rate                         : 1 731 Kbps\nWidth                            : 720 pixels\nHeight                           : 304 pixels\nDisplay aspect ratio             : 2.35:1\nFrame rate                       : 25.000 fps\nColor space                      : YUV\nChroma subsampling               : 4:2:0\nBit depth                        : 8 bits\nScan type                        : Progressive\nCompression mode                 : Lossy\nBits/(Pixel*Frame)               : 0.316\nStream size                      : 1.27 GiB (93%)\nWriting library                  : XviD 64\n\nAudio\nID                               : 1\nFormat                           : MPEG Audio\nFormat version                   : Version 1\nFormat profile                   : Layer 3\nMode                             : Joint stereo\nMode extension                   : MS Stereo\nCodec ID                         : 55\nCodec ID/Hint                    : MP3\nDuration                         : 1h 45mn\nBit rate mode                    : Constant\nBit rate                         : 128 Kbps\nChannel(s)                       : 2 channels\nSampling rate                    : 44.1 KHz\nCompression mode                 : Lossy\nStream size                      : 96.3 MiB (7%)\nAlignment                        : Split accross interleaves\nInterleave, duration             : 40 ms (1.00 video frame)\n\nRelease Notes:\n\nHere we have a very nice release for all The Three Musketeers 2011 TS XviD READNFO - ILLUMINATI ;)\nVideo is nice overall gotter say thanks to FLOPPYDiSK tho for the sourcefiles for us to use on\nthis release. Video is missing 2 seconds at 50:59 so may seem OOS for a second or so but comes right back\nOnto audio which honestly must say sounds very nice but is missing 8 seconds at 1:27.21 \nwhich we used cam audio to fill that in.\n\nScreens:\n[IMG]http://i.imgur.com/HzaN4.png[/IMG]\n[IMG]http://i.imgur.com/Cp2Am.png[/IMG]\n[IMG]http://i.imgur.com/z8bum.png[/IMG]\n[IMG]http://i.imgur.com/CIbGj.png[/IMG]\n[IMG]http://i.imgur.com/uX1Al.png[/IMG]\n\nGreets To All Doing There Thing To SUpport P2P And The Scene ;)","torrent":{"xt":"urn:btih:33190a47b44481147b42e78afe19c016221dd11a","amp;dn":"The+Three+Musketeers+2011+TS+XviD+READNFO+-+ILLUMINATI","amp;tr":["udp%3A%2F%2Ftracker.openbittorrent.com%3A80","udp%3A%2F%2Fopen.demonii.com%3A1337","udp%3A%2F%2Ftracker.coppersurfer.tk%3A6969","udp%3A%2F%2Fexodus.desync.com%3A6969"],"infoHash":"33190a47b44481147b42e78afe19c016221dd11a","infoHashBuffer":{"type":"Buffer","data":[51,25,10,71,180,68,129,20,123,66,231,138,254,25,192,22,34,29,209,26]},"announce":[],"urlList":[]}}